<?xml version="1.0" encoding="UTF-8" standalone="no"?>
<svg
   xmlns:dc="http://purl.org/dc/elements/1.1/"
   xmlns:cc="http://creativecommons.org/ns#"
   xmlns:rdf="http://www.w3.org/1999/02/22-rdf-syntax-ns#"
   xmlns:svg="http://www.w3.org/2000/svg"
   xmlns="http://www.w3.org/2000/svg"
   xmlns:sodipodi="http://sodipodi.sourceforge.net/DTD/sodipodi-0.dtd"
   xmlns:inkscape="http://www.inkscape.org/namespaces/inkscape"
   version="1.1"
   x="0px"
   y="0px"
   viewBox="7.5 7.5 200 50"
   enable-background="new 7.5 7.5 50 50"
   xml:space="preserve"
   id="svg3737"
   sodipodi:docname="logo.svg"
   width="200"
   height="50"
   inkscape:version="0.92.4 (5da689c313, 2019-01-14)"><metadata
     id="metadata3743"><rdf:RDF><cc:Work
         rdf:about=""><dc:format>image/svg+xml</dc:format><dc:type
           rdf:resource="http://purl.org/dc/dcmitype/StillImage" /><dc:title></dc:title></cc:Work></rdf:RDF></metadata><defs
     id="defs3741" /><sodipodi:namedview
     pagecolor="#ffffff"
     bordercolor="#666666"
     borderopacity="1"
     objecttolerance="10"
     gridtolerance="10"
     guidetolerance="10"
     inkscape:pageopacity="0"
     inkscape:pageshadow="2"
     inkscape:window-width="2560"
     inkscape:window-height="1377"
     id="namedview3739"
     showgrid="false"
     inkscape:zoom="6.8334799"
     inkscape:cx="145.63298"
     inkscape:cy="41.988894"
     inkscape:window-x="4472"
     inkscape:window-y="32"
     inkscape:window-maximized="1"
     inkscape:current-layer="svg3737" /><path
     d="m 37.337707,54.422419 c 0.736,0.422 1.593,0.533 2.415,0.311 0.819,-0.222 1.504,-0.751 1.927,-1.489 l 14.349,-25.019 c 0.423,-0.737 0.534,-1.595 0.312,-2.416 -0.222,-0.821 -0.751,-1.505 -1.489,-1.929 l -14.105,-8.089 c -0.737,-0.423 -1.598,-0.535 -2.416,-0.311 -0.82,0.222 -1.505,0.751 -1.928,1.488 l -1.885,3.285 v 21.511 c 0,2.307 -1.876,4.183 -4.181,4.183 h -7.615 c 0.16,0.141 0.323,0.279 0.509,0.386 z"
     id="path3729"
     inkscape:connector-curvature="0"
     style="fill:#44aa00" /><path
     d="m 10.889707,41.765419 c 0,1.755 1.427,3.183 3.182,3.183 h 16.264 c 1.754,0 3.181,-1.428 3.181,-3.183 v -28.843 c 0,-1.754 -1.427,-3.1819996 -3.181,-3.1819996 h -16.264 c -1.754,0 -3.182,1.4279996 -3.182,3.1819996 z"
     id="path3731"
     inkscape:connector-curvature="0"
     style="fill:#44aa00" /><text
     xml:space="preserve"
     style="font-style:normal;font-weight:normal;font-size:40px;line-height:1.25;font-family:sans-serif;letter-spacing:0px;word-spacing:0px;fill:#000000;fill-opacity:1;stroke:none"
     x="60.035458"
     y="45.792934"
     id="text3747"><tspan
       sodipodi:role="line"
       id="tspan3745"
       x="60.035458"
       y="45.792934"
       style="font-style:normal;font-variant:normal;font-weight:normal;font-stretch:normal;font-size:34.66666794px;font-family:'Yanone Kaffeesatz';-inkscape-font-specification:'Yanone Kaffeesatz';fill:#44aa00">Card Librarian</tspan></text>
</svg>